<svg xmlns="http://www.w3.org/2000/svg" width="573" height="500" viewBox="0 0 573 500">
    <g fill="none" fill-rule="evenodd" opacity=".75">
        <g stroke="#DFDFDF" stroke-width="1.5">
            <g>
                <path d="M146.872 22.918c50.88-28.205 116.718-27.149 170.05-9.98 35.19 11.328 64.943 29.675 93.72 49.599l2.27 1.576h0l2.267 1.582h0l2.263 1.587c3.016 2.12 6.025 4.253 9.032 6.392h0l2.607 1.855 2.606 1.858h0l5.217 3.72c2.61 1.86 5.223 3.72 7.844 5.576h0l2.622 1.853c2.626 1.852 5.26 3.698 7.904 5.533 2.204 1.53 4.415 3.052 6.63 4.57h0l2.659 1.817c2.68 1.83 5.364 3.654 8.043 5.474h0l1.265.86 2.654 1.804c36.987 25.16 72.49 50.039 87.075 83.894 17.358 40.295 5.055 93.256-12.212 144.034-17.283 50.824-39.58 99.506-77.382 127.936-37.783 28.417-91.037 36.579-142.748 34.48-51.824-2.102-102.115-14.526-162.29-35.764C108.902 441.976 38.902 412.032 13.1 361.033c-25.794-50.984-7.354-122.942 19.772-187.625 27.151-64.741 63.072-122.26 114-150.49z" transform="translate(-434 -5529) translate(434 5529)"/>
                <path d="M151.312 29.819c49.26-27.347 113-26.322 164.632-9.676 38.051 12.268 69.539 33.024 100.475 54.92l2.235 1.584h0l2.234 1.588c1.49 1.06 2.978 2.121 4.466 3.184l2.233 1.594h0l1.116.797c3.24 2.314 6.482 4.63 9.735 6.94h0l2.536 1.799 2.543 1.796h0l2.547 1.79c1.276.895 2.553 1.788 3.834 2.678 2.133 1.483 4.275 2.96 6.42 4.431h0l2.574 1.763c2.595 1.774 5.194 3.542 7.787 5.307h0l1.225.834 2.57 1.75c1.79 1.219 3.577 2.438 5.358 3.658l2.134 1.463c33.03 22.693 63.679 45.692 76.81 76.22 16.806 39.07 4.893 90.42-11.824 139.655-16.733 49.279-38.32 96.481-74.918 124.048-36.58 27.553-88.137 35.465-138.2 33.43-50.177-2.039-98.87-14.086-157.132-34.68-58.15-20.553-125.924-49.584-150.904-99.034-24.973-49.434-7.118-119.205 19.145-181.92 26.287-62.775 61.063-118.546 110.37-145.92z" transform="translate(-434 -5529) translate(434 5529)"/>
                <path d="M155.753 36.72c47.638-26.49 109.28-25.496 159.213-9.372 37.017 11.953 67.61 32.228 97.7 53.573h0l2.442 1.736h0l1.221.87 2.441 1.74h0l1.22.873 2.442 1.745 1.59 1.138c2.319 1.659 4.64 3.319 6.965 4.977h0l2.45 1.745c3.678 2.617 7.37 5.225 11.084 7.811 5.385 3.749 10.818 7.452 16.232 11.142l2.155 1.47 2.152 1.467c34.404 23.48 67.322 46.754 80.893 78.355 16.253 37.845 4.73 87.585-11.438 135.275-16.182 47.734-37.058 93.458-72.452 120.16-35.376 26.689-85.238 34.352-133.654 32.38-48.528-1.974-95.622-13.645-151.972-33.593-56.238-19.91-121.784-48.029-145.943-95.928-24.152-47.885-6.88-115.468 18.518-176.217C74.435 117.26 108.067 63.235 155.752 36.72z" transform="translate(-434 -5529) translate(434 5529)"/>
                <path d="M160.933 45.001c45.747-25.46 104.942-24.504 152.893-9.006 36.024 11.642 65.715 31.498 94.985 52.317l2.167 1.544 1.084.773 2.166 1.548h0l3.249 2.325h0l1.083.775c6.53 4.676 13.071 9.36 19.69 13.972 1.189.828 2.38 1.655 3.575 2.48h0l2.388 1.646c1.992 1.37 3.987 2.735 5.982 4.098h0l3.588 2.448 4.142 2.827 2.066 1.412c32.332 22.126 62.907 44.191 75.669 73.932 15.607 36.374 4.539 84.182-10.987 130.018-15.54 45.88-35.586 89.83-69.577 115.495-33.972 25.652-81.854 33.015-128.348 31.121-46.607-1.898-91.835-13.116-145.953-32.292-54.007-19.136-116.954-46.16-140.155-92.2-23.194-46.025-6.604-110.983 17.786-169.372 24.415-58.446 56.712-110.375 102.507-135.861z" transform="translate(-434 -5529) translate(434 5529)"/>
                <path d="M167.592 56.043c43.317-24.088 99.366-23.182 144.768-8.52 31.84 10.283 58.455 27.337 84.399 45.58h0l2.227 1.57c2.967 2.097 5.926 4.207 8.886 6.322h0l2.22 1.588 1.447 1.035 4.11 2.939h0l3.34 2.383 2.23 1.586c2.976 2.114 5.963 4.221 8.967 6.313 3.379 2.353 6.779 4.686 10.18 7.009h0l3.399 2.319 1.186.808c32.673 22.272 64.62 43.986 77.474 73.92 14.778 34.414 4.294 79.644-10.406 123.008-14.714 43.409-33.694 84.992-65.88 109.275-32.166 24.27-77.505 31.234-121.528 29.442-44.135-1.796-86.966-12.411-138.214-30.556-51.137-18.105-110.744-43.67-132.713-87.23C31.723 301.29 47.436 239.831 70.53 184.59c23.118-55.299 53.7-104.433 97.062-128.547z" transform="translate(-434 -5529) translate(434 5529)"/>
                <path d="M174.252 67.085c40.885-22.716 93.788-21.86 136.642-8.033 32.534 10.497 59.287 28.476 85.714 47.263h0l2.119 1.508 1.058.754h0l2.117 1.512 4.237 3.028 2.12 1.514 2.122 1.514 1.063.757h0l2.127 1.512c2.838 2.015 5.687 4.022 8.551 6.015 3.545 2.466 7.114 4.909 10.682 7.341h0l2.139 1.458 1.12.763c30.839 21.002 60.994 41.478 73.128 69.708 13.948 32.452 4.048 75.105-9.825 115.997-13.89 40.937-31.803 80.154-62.183 103.055-30.362 22.887-73.156 29.453-114.708 27.763-41.665-1.694-82.097-11.707-130.476-28.82-48.268-17.074-104.534-41.18-125.27-82.26-20.73-41.065-5.892-99.023 15.905-151.116 21.822-52.152 50.686-98.492 91.618-121.233z" transform="translate(-434 -5529) translate(434 5529)"/>
                <path d="M182.39 80.888c37.915-21.001 86.973-20.208 126.713-7.425 29.782 9.58 54.342 25.9 78.542 43.026l2.074 1.47 1.036.736 2.073 1.474h0l2.072 1.476h0l1.036.738c1.275.909 2.55 1.818 3.827 2.726h0l2.074 1.475c3.46 2.457 6.933 4.907 10.43 7.334 2.631 1.824 5.277 3.635 7.924 5.439h0l1.985 1.35 3.023 2.053c28.598 19.417 56.565 38.344 67.817 64.443 12.934 30.001 3.748 69.432-9.116 107.234-12.88 37.847-29.49 74.106-57.663 95.28-28.156 21.159-67.841 27.227-106.373 25.665-38.645-1.567-76.146-10.826-121.019-26.65-44.76-15.786-96.944-38.068-116.174-76.048-19.223-37.966-5.456-91.547 14.756-139.706 20.237-48.217 47.004-91.064 84.964-112.09z" transform="translate(-434 -5529) translate(434 5529)"/>
                <path d="M192.011 96.07c34.402-19.114 78.916-18.39 114.974-6.756 26.323 8.493 48.15 22.806 69.56 37.949l2.037 1.444c1.697 1.206 3.393 2.415 5.089 3.627h0l2.976 2.127c1.323.946 2.647 1.892 3.974 2.837h0l1.99 1.417c2.658 1.889 5.325 3.772 8.008 5.638 2.389 1.662 4.79 3.311 7.194 4.953h0l1.802 1.23 1.801 1.228h0l1.8 1.225h0l1.797 1.225 1.793 1.224.73.499 1.458.998c23.54 16.14 45.568 32.399 54.905 54.121 11.736 27.306 3.395 63.194-8.278 97.597-11.687 34.45-26.757 67.455-52.323 86.727-25.548 19.258-61.558 24.778-96.52 23.356-35.075-1.427-69.112-9.856-109.84-24.263-40.616-14.367-87.974-34.643-105.425-69.213-17.443-34.556-4.942-83.326 13.398-127.157 18.365-43.89 42.652-82.894 77.1-102.033z" transform="translate(-434 -5529) translate(434 5529)"/>
                <path d="M203.85 115.393c30.08-16.712 69.002-16.076 100.528-5.904 23.016 7.426 42.102 19.941 60.822 33.18l1.935 1.372 1.908 1.357c.953.68 1.907 1.36 2.86 2.042h0l3.339 2.386h0l.477.341 1.912 1.364c2.87 2.046 5.75 4.086 8.653 6.105 2.612 1.817 5.242 3.618 7.872 5.41h0l2.363 1.611 1.574 1.072 2.764 1.885 1.377.943c20.632 14.138 39.956 28.371 48.137 47.404 10.261 23.875 2.96 55.252-7.246 85.33-10.22 30.124-23.394 58.989-45.75 75.841-22.338 16.84-53.826 21.661-84.395 20.418-30.682-1.248-60.456-8.622-96.082-21.225-35.515-12.562-76.935-30.284-92.195-60.515-15.252-30.216-4.31-72.86 11.726-111.184 16.06-38.381 37.295-72.495 67.422-89.233z" transform="translate(-434 -5529) translate(434 5529)"/>
            </g>
        </g>
    </g>
</svg>
