<svg xmlns="http://www.w3.org/2000/svg" width="24" height="24" viewBox="0 0 24 24">
    <g fill="none" fill-rule="evenodd">
        <g fill="#1890FF">
            <g>
                <g>
                    <g>
                        <g>
                            <path d="M12 3c3.866 0 7 3.024 7 6.754 0 2.18-1.793 5.663-5.38 10.447-.124.166-.276.312-.448.433-.848.591-2.015.449-2.685-.302l-.108-.131-.286-.385C6.698 15.229 5 11.876 5 9.754 5 6.024 8.134 3 12 3zm0 3.5c-1.657 0-3 1.343-3 3s1.343 3 3 3 3-1.343 3-3-1.343-3-3-3z" transform="translate(-130 -6304) translate(0 6208) translate(130 48) translate(0 44) translate(0 4)"/>
                        </g>
                    </g>
                </g>
            </g>
        </g>
    </g>
</svg>
