<svg xmlns="http://www.w3.org/2000/svg" width="24" height="24" viewBox="0 0 24 24">
    <g fill="none" fill-rule="evenodd">
        <g fill="#1890FF">
            <g>
                <g>
                    <g>
                        <path d="M4.125 5h15.75C20.496 5 21 5.504 21 6.125v11.75c0 .621-.504 1.125-1.125 1.125H4.125C3.504 19 3 18.496 3 17.875V6.125C3 5.504 3.504 5 4.125 5zM5.7 8.63c-.322.382-.276.954.105 1.28l5.522 4.727c.424.363 1.05.36 1.471-.007l5.41-4.719c.376-.33.418-.9.092-1.28-.322-.377-.888-.42-1.264-.098l-.006.005-4.975 4.341L6.97 8.526c-.376-.322-.943-.278-1.265.098L5.7 8.63z" transform="translate(-130 -6416) translate(0 6208) translate(130 48) translate(0 160)"/>
                    </g>
                </g>
            </g>
        </g>
    </g>
</svg>
