<svg xmlns="http://www.w3.org/2000/svg" width="24" height="24" viewBox="0 0 24 24">
    <g fill="none" fill-rule="evenodd">
        <g fill="#1890FF">
            <g>
                <g>
                    <g>
                        <path d="M17.469 13.538c-.35-.362-.77-.556-1.217-.556-.443 0-.868.19-1.231.552l-1.138 1.13c-.093-.051-.187-.098-.277-.144-.13-.065-.252-.126-.357-.19-1.065-.674-2.034-1.552-2.963-2.688-.45-.567-.752-1.043-.972-1.527.296-.27.57-.549.836-.818.1-.1.201-.204.302-.304.756-.753.756-1.728 0-2.48l-.983-.979c-.111-.111-.227-.226-.335-.34-.216-.223-.442-.452-.676-.667C8.108 4.183 7.69 4 7.25 4c-.439 0-.864.183-1.224.527l-.007.007-1.224 1.23c-.46.458-.724 1.017-.781 1.666-.087 1.047.223 2.022.46 2.66.584 1.566 1.455 3.018 2.755 4.573 1.577 1.875 3.474 3.355 5.641 4.398.829.39 1.934.853 3.169.932.075.003.155.007.227.007.831 0 1.53-.297 2.077-.889.003-.007.01-.01.014-.018.187-.226.404-.43.63-.649.155-.147.314-.3.468-.462.357-.37.544-.8.544-1.24 0-.445-.19-.871-.554-1.23l-1.977-1.974z" transform="translate(-130 -6368) translate(0 6208) translate(130 48) translate(0 112)"/>
                    </g>
                </g>
            </g>
        </g>
    </g>
</svg>
