<svg xmlns="http://www.w3.org/2000/svg" width="51" height="115" viewBox="0 0 51 115">
    <g fill="none" fill-rule="evenodd" stroke-linecap="round" stroke-linejoin="round">
        <g stroke-width="3">
            <g>
                <path stroke="#05C2CF" d="M.667 0l7.182 7.183c2.17 2.17 2.17 5.687 0 7.856l-3.254 3.255c-2.17 2.17-2.17 5.687 0 7.857l3.254 3.254c2.17 2.17 2.17 5.687 0 7.857l-3.254 3.254c-2.17 2.17-2.17 5.687 0 7.857l3.254 3.254c2.17 2.17 2.17 5.687 0 7.857l-3.254 3.254c-2.17 2.17-2.17 5.687 0 7.857l3.254 3.254c2.17 2.17 2.17 5.688 0 7.857l-3.254 3.255c-2.17 2.17-2.17 5.687 0 7.856l3.254 3.255c2.17 2.17 2.17 5.687 0 7.856l-7.182 7.183h0" transform="translate(-740 -1546) rotate(-180 395 829.5)"/>
                <path stroke="#FCCD03" d="M19.778 0l7.183 7.183c2.17 2.17 2.17 5.687 0 7.856l-3.255 3.255c-2.17 2.17-2.17 5.687 0 7.857l3.255 3.254c2.17 2.17 2.17 5.687 0 7.857l-3.255 3.254c-2.17 2.17-2.17 5.687 0 7.857l3.255 3.254c2.17 2.17 2.17 5.687 0 7.857l-3.255 3.254c-2.17 2.17-2.17 5.687 0 7.857l3.255 3.254c2.17 2.17 2.17 5.688 0 7.857l-3.255 3.255c-2.17 2.17-2.17 5.687 0 7.856l3.255 3.255c2.17 2.17 2.17 5.687 0 7.856l-7.183 7.183h0" transform="translate(-740 -1546) rotate(-180 395 829.5)"/>
                <path stroke="#05C2CF" d="M38.889 0l7.183 7.183c2.17 2.17 2.17 5.687 0 7.856l-3.255 3.255c-2.17 2.17-2.17 5.687 0 7.857l3.255 3.254c2.17 2.17 2.17 5.687 0 7.857l-3.255 3.254c-2.17 2.17-2.17 5.687 0 7.857l3.255 3.254c2.17 2.17 2.17 5.687 0 7.857l-3.255 3.254c-2.17 2.17-2.17 5.687 0 7.857l3.255 3.254c2.17 2.17 2.17 5.688 0 7.857l-3.255 3.255c-2.17 2.17-2.17 5.687 0 7.856l3.255 3.255c2.17 2.17 2.17 5.687 0 7.856l-7.183 7.183h0" transform="translate(-740 -1546) rotate(-180 395 829.5)"/>
            </g>
        </g>
    </g>
</svg>
